<?xml version="1.0" encoding="UTF-8"?>
<svg width="328px" height="208px" viewBox="0 0 328 208" version="1.1" xmlns="http://www.w3.org/2000/svg" xmlns:xlink="http://www.w3.org/1999/xlink">
    <title>FT-logo</title>
    <g id="FT-logo" stroke="none" stroke-width="1" fill="none" fill-rule="evenodd">
        <g id="Group" transform="translate(10.817134, 60.500000)" fill="#697783" fill-rule="nonzero">
            <path d="M100.805633,-1.42108547e-14 L100.805633,100.8 L1.42108547e-14,100.8 L1.42108547e-14,-1.42108547e-14 L100.805633,-1.42108547e-14 Z M49.0800738,14.3079327 L11.0517767,14.3079327 L11.0517767,16.0486805 C15.4025194,16.2458526 16.674561,16.7810339 16.674561,21.5413312 L16.674561,21.5413312 L16.674561,52.6043838 C16.674561,57.3646812 15.4025194,57.894229 10.9176997,58.0970346 L10.9176997,58.0970346 L10.9176997,59.8377824 L32.4764947,59.8377824 L32.4764947,58.0970346 C27.0525725,57.894229 25.7827843,57.3646812 25.7827843,52.6043838 L25.7825027,52.6043838 L25.7825027,37.7432426 L29.1800592,37.7432426 C35.073251,37.7432426 37.7536646,39.0783793 38.6888236,44.4358263 L38.6888236,44.4358263 L40.4295713,44.4358263 L40.4295713,28.3634852 L38.6888236,28.3634852 C37.8195764,33.118149 36.2788174,34.3969508 29.1800592,34.3969508 L29.1800592,34.3969508 L25.7825027,34.3969508 L25.7825027,19.9977555 C25.7825027,18.1218041 26.2512089,17.6542246 28.3215157,17.6542246 L28.3215157,17.6542246 L35.2214117,17.6542246 C44.1262661,17.6542246 45.8692673,19.2597686 47.4753747,24.3468082 L47.4753747,24.3468082 L49.3507629,24.3468082 L49.0800738,14.3079327 Z M92.1452725,14.3079327 L52.2376438,14.3079327 L51.3112167,24.3524417 L53.6003845,24.3524417 C55.0611479,19.4344068 57.2091969,17.6542246 62.0128721,17.6542246 L67.6379098,17.6542246 L67.6379098,52.6043838 C67.6379098,57.3646812 66.3658682,57.894229 61.2117901,58.0970346 L61.2117901,59.8377824 L83.1739429,59.8377824 L83.1739429,58.0970346 C78.0176114,57.894229 76.7461331,57.3646812 76.7461331,52.6043838 L76.7461331,17.6542246 L82.3683541,17.6542246 C87.1742827,17.6542246 89.324585,19.4344068 90.7830951,24.3524417 L93.0697278,24.3524417 L92.1452725,14.3079327 Z" id="Combined-Shape"></path>
            <path d="M124.197277,79.3190471 C124.197277,77.0429293 124.810564,76.7900273 127.403863,76.6846515 L127.403863,75.8732576 L117.080194,75.8732576 L117.080194,76.6846515 C119.224592,76.7900273 119.837879,77.0429293 119.837879,79.3190471 L119.837879,94.1981133 C119.837879,96.4847687 119.224592,96.7376706 117.137097,96.8325089 L117.137097,97.6649779 L135.363953,97.6649779 L135.487243,92.8598404 L134.590495,92.8598404 C133.820197,95.2940219 132.988782,96.0632654 128.721061,96.0632654 L125.415422,96.0632654 C124.422781,96.0632654 124.197277,95.8419762 124.197277,94.9357441 L124.197277,88.0441652 L127.922312,88.0441652 C131.321737,88.0441652 132.058314,88.655345 132.474548,90.9314628 L133.310178,90.9314628 L133.310178,83.2284901 L132.474548,83.2284901 C132.025647,85.7996602 130.741116,86.4424527 127.922312,86.4424527 L124.197277,86.4424527 L124.197277,79.3190471 L124.197277,79.3190471 Z M145.691838,79.3190471 C145.691838,77.0429293 146.296695,76.7900273 148.898424,76.6846515 L148.898424,75.8732576 L138.117423,75.8732576 L138.117423,76.6846515 C140.723367,76.7900273 141.32401,77.0429293 141.32401,79.3190471 L141.32401,94.1981133 C141.32401,96.4847687 140.723367,96.7376706 138.117423,96.8325089 L138.117423,97.6649779 L148.898424,97.6649779 L148.898424,96.8325089 C146.296695,96.7376706 145.691838,96.4847687 145.691838,94.1981133 L145.691838,79.3190471 Z M171.385625,93.5869335 C171.385625,95.7049876 170.805004,96.5690693 168.429833,96.8325089 L168.429833,97.6649779 L176.127537,97.6649779 L176.127537,96.8325089 C173.756581,96.5690693 173.180175,95.7049876 173.180175,93.5869335 L173.180175,75.3358409 L172.089535,75.3358409 L157.209415,92.5331753 L157.209415,79.9302268 C157.209415,77.8121728 157.781606,76.948091 160.156777,76.6846515 L160.156777,75.8732576 L152.454858,75.8732576 L152.454858,76.6846515 C154.830029,76.948091 155.406435,77.8121728 155.406435,79.9302268 L155.406435,94.609079 C154.669858,95.9052016 153.800507,96.5163814 152.454858,96.8325089 L152.454858,97.6649779 L158.390678,97.6649779 L171.385625,82.6489231 L171.385625,93.5869335 L171.385625,93.5869335 Z M183.026492,83.6816061 L186.298411,92.3118861 L189.541879,83.6816061 L183.026492,83.6816061 Z M198.647404,75.8732576 L198.647404,76.6846515 C197.013025,76.6530387 196.597844,77.3590568 195.762741,79.4138853 L188.093488,98.1813194 L187.03973,98.1813194 L179.050135,78.73948 C178.503234,77.3906695 177.765604,76.9797038 176.387288,76.6846515 L176.387288,75.8732576 L183.314695,75.8732576 L183.314695,76.6846515 C181.80782,76.6846515 181.071243,77.0113165 181.071243,78.0650748 C181.071243,78.9607693 182.068099,81.3738756 182.318893,82.0798936 L190.21365,82.0798936 C190.468659,81.3738756 191.526632,78.9607693 191.526632,78.0650748 C191.526632,77.0113165 190.727884,76.6846515 189.217848,76.6846515 L189.217848,75.8732576 L198.647404,75.8732576 L198.647404,75.8732576 Z M219.787901,93.5869335 C219.787901,95.7049876 219.212549,96.5690693 216.841067,96.8325089 L216.841067,97.6649779 L224.538244,97.6649779 L224.538244,96.8325089 C222.163072,96.5690693 221.583505,95.7049876 221.583505,93.5869335 L221.583505,75.3358409 L220.496027,75.3358409 L205.610638,92.5331753 L205.611165,79.9302268 C205.611165,77.8121728 206.187602,76.948091 208.562742,76.6846515 L208.562742,75.8732576 L200.860823,75.8732576 L200.860823,76.6846515 C203.235994,76.948091 203.816615,77.8121728 203.816615,79.9302268 L203.816615,94.609079 C203.075823,95.9052016 202.207526,96.5163814 200.860823,96.8325089 L200.860823,97.6649779 L206.796643,97.6649779 L219.787375,82.6489231 L219.788428,93.5869335 L219.787901,93.5869335 Z M247.32998,80.9945227 C245.049648,77.1061548 242.065404,75.3358409 237.54162,75.3358409 C230.452988,75.3358409 226.250601,79.9934523 226.250601,86.9587943 C226.250601,91.9219955 230.165312,98.1813194 237.768178,98.1813194 C240.044296,98.1813194 243.279334,96.8957344 243.765116,96.8957344 C244.403694,96.8957344 244.596531,97.2434746 245.116034,98.1813194 L246.202459,98.1813194 L246.654521,90.89985 L245.691386,90.89985 C244.403694,94.2718764 242.131791,96.7060579 238.311917,96.7060579 C233.178007,96.7060579 230.93561,91.152752 230.93561,86.9587943 C230.93561,81.0788233 233.466737,77.1377675 238.891484,77.1377675 C243.123377,77.1377675 245.465882,80.2779671 246.461684,81.6583903 L247.32998,80.9945227 L247.32998,80.9945227 Z M257.892853,79.3190471 C257.892853,77.0429293 258.50614,76.7900273 261.1026,76.6846515 L261.1026,75.8732576 L250.322654,75.8732576 L250.322654,76.6846515 C252.924383,76.7900273 253.533455,77.0429293 253.533455,79.3190471 L253.533455,94.1981133 C253.533455,96.4847687 252.924383,96.7376706 250.322654,96.8325089 L250.322654,97.6649779 L261.1026,97.6649779 L261.1026,96.8325089 C258.50614,96.7376706 257.892853,96.4847687 257.892853,94.1981133 L257.892853,79.3190471 Z M270.035309,83.6816061 L273.307228,92.3118861 L276.547535,83.6816061 L270.035309,83.6816061 Z M285.660436,75.8732576 L285.660436,76.6846515 C284.021842,76.6530387 283.606661,77.3590568 282.775246,79.4138853 L275.105994,98.1813194 L274.049074,98.1813194 L266.059479,78.73948 C265.511525,77.3906695 264.774948,76.9797038 263.395578,76.6846515 L263.395578,75.8732576 L270.322985,75.8732576 L270.322985,76.6846515 C268.817164,76.6846515 268.080587,77.0113165 268.080587,78.0650748 C268.080587,78.9607693 269.076389,81.3738756 269.331398,82.0798936 L277.22194,82.0798936 C277.47695,81.3738756 278.534923,78.9607693 278.534923,78.0650748 C278.534923,77.0113165 277.733013,76.6846515 276.226139,76.6846515 L276.226139,75.8732576 L285.660436,75.8732576 L285.660436,75.8732576 Z M287.566685,75.8732576 L287.566685,76.6846515 C289.653126,76.7794897 290.262198,77.0429293 290.262198,79.3190471 L290.262198,94.1981133 C290.262198,96.4847687 289.653126,96.7376706 287.566685,96.8325089 L287.566685,97.6649779 L297.638506,97.6649779 L297.638506,96.8325089 C295.234883,96.7376706 294.621596,96.4847687 294.621596,94.1981133 L294.621596,78.8975438 C294.621596,77.580346 295.008325,77.1377675 297.445668,77.1377675 C301.36038,77.1377675 303.669164,77.8437855 305.530101,81.6900031 L306.365732,81.6900031 L304.891524,75.8732576 L287.566685,75.8732576 Z M121.863203,41.4996641 C124.340588,41.6050399 124.945445,41.8579419 124.945445,44.1340597 L124.945445,60.878278 L122.254147,60.878278 C119.718805,60.878278 118.721949,59.8561325 118.018039,56.9056095 L117.054904,56.9056095 L117.569138,62.4799905 L136.685366,62.4799905 L137.1996,56.9056095 L136.23225,56.9056095 C135.532554,59.8561325 134.536753,60.878278 132.005626,60.878278 L129.309058,60.878278 L129.309058,44.1340597 C129.309058,41.8579419 129.918131,41.6050399 132.383925,41.4996641 L132.383925,40.6882703 L121.863203,40.6882703 L121.863203,41.4996641 L121.863203,41.4996641 Z M147.01325,44.1340597 C147.01325,41.8579419 147.626538,41.6050399 150.224052,41.5102017 L150.224052,40.6882703 L139.443051,40.6882703 L139.443051,41.5102017 C142.048995,41.6050399 142.653853,41.8579419 142.653853,44.1340597 L142.653853,59.0236635 C142.653853,61.2997813 142.048995,61.5526833 139.443051,61.6475215 L139.443051,62.4905281 L150.224052,62.4905281 L150.224052,61.6475215 C147.626538,61.5526833 147.01325,61.2997813 147.01325,59.0236635 L147.01325,44.1340597 L147.01325,44.1340597 Z M173.122218,62.4799905 L180.630245,62.4799905 L180.630245,61.6475215 C178.543804,61.5526833 177.938947,61.2997813 177.938947,59.0236635 L177.938947,44.1340597 C177.938947,41.8579419 178.543804,41.6050399 180.630245,41.4996641 L180.630245,40.6882703 L170.813434,40.6882703 L170.813434,41.4996641 C172.962047,41.6050399 173.575334,41.8579419 173.575334,44.1340597 L173.575334,59.466242 L173.508947,59.466242 L166.227478,40.4142931 L165.231676,40.4142931 L158.114593,59.466242 L158.04926,59.466242 L158.04926,44.7452395 C158.04926,42.6271854 158.624612,41.7631037 160.999783,41.4996641 L160.999783,40.6882703 L153.303133,40.6882703 L153.303133,41.4996641 C155.674089,41.7631037 156.250495,42.6271854 156.250495,44.7452395 L156.250495,59.5610802 C156.250495,61.0679545 155.611918,61.6475215 153.303133,61.6475215 L153.303133,62.4799905 L161.226341,62.4799905 L167.030442,47.3480223 L173.122218,62.4799905 L173.122218,62.4799905 Z M183.726187,40.6882703 L183.726187,41.4996641 C185.808413,41.6050399 186.417486,41.8579419 186.417486,44.1340597 L186.417486,59.0236635 C186.417486,61.2997813 185.808413,61.5526833 183.726187,61.6475215 L183.726187,62.4799905 L201.94356,62.4799905 L202.071591,57.674853 L201.178004,57.674853 C200.404546,60.1090345 199.568915,60.878278 195.304883,60.878278 L192.003458,60.878278 C191.003442,60.878278 190.785314,60.6569888 190.785314,59.7612943 L190.785314,52.8591778 L194.501919,52.8591778 C197.90187,52.8591778 198.638447,53.4703576 199.058896,55.7464754 L199.893473,55.7464754 L199.893473,48.0540403 L199.058896,48.0540403 C198.60578,50.6146728 197.325464,51.2574653 194.501919,51.2574653 L190.785314,51.2574653 L190.785314,43.7125564 C190.785314,42.4058962 191.167828,41.9527801 195.017207,41.9527801 C198.927177,41.9527801 201.240176,42.6587982 203.100059,46.5155533 L203.932528,46.5155533 L202.45832,40.6882703 L183.726714,40.6882703 L183.726187,40.6882703 Z M206.768718,47.5376988 L207.608564,47.5376988 C208.534786,44.6504012 211.296718,41.6366527 214.507519,41.6366527 C217.260989,41.6366527 218.257318,43.5544926 218.257318,45.261581 C218.257318,50.2669326 206.966298,51.1942398 206.966298,57.4114134 C206.965803,60.425162 209.884682,62.996332 213.218773,62.996332 C216.490692,62.996332 217.64403,61.8477356 219.092948,61.8477356 C219.70202,61.8477356 220.085588,62.3219268 220.245759,62.996332 L221.08139,62.996332 L221.08139,56.0731405 L220.245759,56.0731405 C219.347957,59.21334 217.105033,61.5210705 214.149241,61.5210705 C211.716113,61.5210705 210.810935,59.9509707 210.810935,58.4651716 C210.810935,54.0183119 222.107223,53.8813233 222.107223,46.220501 C222.10617,42.7957867 219.286312,40.1613911 215.366859,40.1613911 C211.518534,40.1613911 210.525893,41.4996641 209.015858,41.4996641 C208.443667,41.4996641 208.052723,41.1203111 207.928379,40.4142931 L206.768192,40.4142931 L206.768192,47.5376988 L206.768718,47.5376988 Z" id="FinancialTimes" transform="translate(211.710318, 69.171355) scale(-1, 1) rotate(-180.000000) translate(-211.710318, -69.171355) "></path>
        </g>
    </g>
</svg>