<?xml version="1.0" encoding="UTF-8"?>
<svg width="328px" height="208px" viewBox="0 0 328 208" version="1.1" xmlns="http://www.w3.org/2000/svg" xmlns:xlink="http://www.w3.org/1999/xlink">
    <title>Vox-logo</title>
    <g id="Vox-logo" stroke="none" stroke-width="1" fill="none" fill-rule="evenodd">
        <path d="M154.690846,45.4198618 L157.920553,45.4198618 L158.300518,43.9 L117.644214,43.9 L117.264249,45.4198618 L123.153713,45.4198618 C128.283247,45.4198618 132.462867,49.0295337 132.462867,56.0588946 C132.462867,60.048532 130.753022,65.1780656 127.903282,71.4474957 L101.495682,129.772193 L95.0362694,53.9690846 C94.4663212,48.07962 97.5060449,45.4198618 104.15544,45.4198618 L107.955095,45.4198618 L108.33506,43.9 L50.9602763,43.9 L50.3903282,45.4198618 L54,45.4198618 C58.5595855,45.4198618 60.2694301,48.2696028 60.6493955,53.5891192 L70.9084629,151.620207 L95.0362694,151.620207 L135.502591,65.9379965 C141.772021,53.2091537 148.231434,45.4198618 154.690846,45.4198618 Z M149.941278,152.000173 C146.331606,152.000173 144.051813,150.860276 144.051813,144.780829 C144.051813,137.18152 146.901554,122.172884 149.941278,108.494128 C150.321244,114.763558 154.690846,121.032988 161.150259,121.032988 C162.670121,121.032988 164,120.843005 165.329879,120.653022 C159.250432,146.680656 156.970639,152.000173 149.941278,152.000173 Z M265.070812,100.514853 C272.670121,100.514853 277.609672,94.2454231 277.609672,87.0260794 C277.609672,80.9466321 273.240069,76.3870466 266.970639,76.3870466 C255.761658,76.3870466 250.442142,85.3162349 241.132988,101.65475 C239.233161,91.3956822 234.483592,78.0968912 222.704663,78.0968912 C209.405872,78.0968912 194.017271,97.0951641 179.958549,108.874093 C173.499136,114.383592 166.469775,117.803282 160.770294,117.803282 C154.880829,117.803282 151.46114,111.913817 151.46114,101.464767 C155.64076,84.3663212 157.73057,79.9967185 164.189983,79.9967185 C168.559585,79.9967185 170.459413,82.466494 170.459413,87.5960276 C170.459413,93.1055268 169.319516,102.224698 166.849741,113.813644 C173.119171,111.913817 182.618307,103.934542 190.597582,95.3853195 C186.417962,85.3162349 177.298791,78.4768566 164.379965,78.4768566 C140.252159,78.4768566 118.974093,100.134888 118.974093,124.452677 C118.974093,141.171157 130.943005,153.9 149.561313,153.9 C180.338515,153.9 193.25734,127.302418 193.25734,108.684111 C193.25734,106.024352 193.067358,104.124525 192.877375,101.65475 C197.626943,96.5252159 203.70639,91.5856649 208.645941,91.5856649 C214.345423,91.5856649 218.905009,105.83437 223.274611,127.302418 C219.284974,131.672021 215.295337,140.031261 213.395509,141.551123 C212.635579,133.951813 207.506045,129.202245 200.856649,129.202245 C193.25734,129.202245 188.127807,136.421589 188.127807,142.501036 C188.127807,149.340415 192.877375,153.9 199.146805,153.9 C212.255613,153.9 215.865285,141.551123 224.034542,130.532124 C226.504318,142.311054 232.393782,153.9 242.462867,153.9 C254.431779,153.9 265.450777,143.640933 271.150259,136.421589 L270.010363,134.711744 C266.400691,138.321416 262.791019,140.601209 258.611399,140.601209 C251.202073,140.601209 245.882556,124.64266 241.892919,105.264421 C244.362694,102.034715 248.162349,93.675475 250.822107,90.6357513 C252.531952,94.0554404 256.331606,100.514853 265.070812,100.514853 Z" id="Shape" fill="#697783" fill-rule="nonzero"></path>
    </g>
</svg>